<svg height="140" viewBox="0 0 740 1009" fill="none" xmlns="http://www.w3.org/2000/svg">
<path d="M97.0833 973V864.37H105.039V973H97.0833ZM129.506 973V901.09H137.462V973H129.506ZM133.637 882.577C132.005 882.577 130.577 882.067 129.353 881.047C128.231 879.925 127.67 878.395 127.67 876.457C127.67 874.417 128.231 872.836 129.353 871.714C130.475 870.592 131.852 870.031 133.484 870.031C135.014 870.031 136.34 870.592 137.462 871.714C138.686 872.734 139.298 874.315 139.298 876.457C139.298 878.497 138.737 880.027 137.615 881.047C136.493 882.067 135.167 882.577 133.637 882.577ZM169.273 973H161.317V901.09H167.131L168.355 911.035C171.823 907.771 175.546 905.17 179.524 903.232C183.604 901.192 188.194 900.172 193.294 900.172C200.638 900.172 206.35 902.212 210.43 906.292C214.612 910.372 216.703 916.084 216.703 923.428V973H208.747V925.417C208.747 922.765 208.441 920.317 207.829 918.073C207.319 915.727 206.35 913.738 204.922 912.106C203.596 910.372 201.76 909.046 199.414 908.128C197.17 907.108 194.365 906.598 190.999 906.598C187.123 906.598 183.247 907.618 179.371 909.658C175.597 911.596 172.231 914.248 169.273 917.614V973ZM248.477 946.684V973H240.521V864.37H248.477V937.504L284.585 901.09H294.53L264.236 931.384L295.907 973H286.421L259.034 936.127L248.477 946.684ZM359.667 937.045H308.412V939.187C308.412 948.163 310.809 955.201 315.603 960.301C320.499 965.299 327.129 967.798 335.493 967.798C342.123 967.798 348.345 966.676 354.159 964.432L355.995 970.552C353.343 971.674 350.13 972.541 346.356 973.153C342.684 973.867 338.91 974.224 335.034 974.224C330.24 974.224 325.701 973.51 321.417 972.082C317.235 970.654 313.563 968.461 310.401 965.503C307.239 962.443 304.74 958.618 302.904 954.028C301.068 949.336 300.15 943.726 300.15 937.198C300.15 931.588 300.915 926.488 302.445 921.898C303.975 917.308 306.168 913.432 309.024 910.27C311.88 907.006 315.246 904.507 319.122 902.773C322.998 901.039 327.333 900.172 332.127 900.172C336.207 900.172 339.93 900.937 343.296 902.467C346.764 903.895 349.671 905.986 352.017 908.74C354.465 911.494 356.352 914.809 357.678 918.685C359.004 922.561 359.667 926.845 359.667 931.537V937.045ZM351.405 930.619C351.405 927.661 351.048 924.754 350.334 921.898C349.62 918.94 348.447 916.339 346.815 914.095C345.285 911.851 343.245 910.066 340.695 908.74C338.247 907.312 335.238 906.598 331.668 906.598C325.446 906.598 320.244 908.689 316.062 912.871C311.982 917.053 309.534 922.969 308.718 930.619H351.405ZM424.64 864.37H432.596V973H426.17L425.099 966.268H424.793C422.651 968.614 419.948 970.552 416.684 972.082C413.42 973.51 409.187 974.224 403.985 974.224C400.109 974.224 396.284 973.51 392.51 972.082C388.838 970.552 385.472 968.257 382.412 965.197C379.454 962.137 377.057 958.312 375.221 953.722C373.385 949.03 372.467 943.522 372.467 937.198C372.467 931.588 373.181 926.488 374.609 921.898C376.139 917.308 378.332 913.432 381.188 910.27C384.044 907.006 387.461 904.507 391.439 902.773C395.519 901.039 400.109 900.172 405.209 900.172C412.961 900.172 419.438 902.467 424.64 907.057V864.37ZM424.64 915.166C422.6 912.514 419.897 910.423 416.531 908.893C413.165 907.363 409.85 906.598 406.586 906.598C403.22 906.598 399.956 907.159 396.794 908.281C393.734 909.301 390.98 910.984 388.532 913.33C386.186 915.676 384.299 918.787 382.871 922.663C381.443 926.539 380.729 931.231 380.729 936.739C380.729 942.451 381.443 947.296 382.871 951.274C384.299 955.15 386.186 958.312 388.532 960.76C390.98 963.208 393.734 964.993 396.794 966.115C399.854 967.237 403.016 967.798 406.28 967.798C410.666 967.798 414.389 966.982 417.449 965.35C420.611 963.718 423.008 961.678 424.64 959.23V915.166ZM487.353 973V864.37H495.309V973H487.353ZM519.776 973V901.09H527.732V973H519.776ZM523.907 882.577C522.275 882.577 520.847 882.067 519.623 881.047C518.501 879.925 517.94 878.395 517.94 876.457C517.94 874.417 518.501 872.836 519.623 871.714C520.745 870.592 522.122 870.031 523.754 870.031C525.284 870.031 526.61 870.592 527.732 871.714C528.956 872.734 529.568 874.315 529.568 876.457C529.568 878.497 529.007 880.027 527.885 881.047C526.763 882.067 525.437 882.577 523.907 882.577ZM588.459 910.117C583.359 907.771 577.8 906.598 571.782 906.598C566.274 906.598 562.143 907.771 559.389 910.117C556.635 912.361 555.258 915.268 555.258 918.838C555.258 922.408 556.431 925.162 558.777 927.1C561.123 928.936 565.254 930.721 571.17 932.455L575.76 933.832C581.574 935.566 586.011 938.116 589.071 941.482C592.131 944.848 593.661 948.979 593.661 953.875C593.661 956.731 593.1 959.434 591.978 961.984C590.856 964.432 589.225 966.574 587.083 968.41C584.94 970.246 582.237 971.674 578.973 972.694C575.811 973.714 572.139 974.224 567.957 974.224C563.367 974.224 559.338 973.816 555.87 973C552.402 972.286 549.342 971.317 546.69 970.093L548.832 963.82C551.484 965.146 554.238 966.166 557.094 966.88C559.95 967.492 563.316 967.798 567.192 967.798C573.006 967.798 577.494 966.676 580.656 964.432C583.818 962.188 585.399 958.975 585.399 954.793C585.399 951.529 584.226 948.724 581.88 946.378C579.636 943.93 575.607 941.788 569.793 939.952L564.897 938.422C552.963 934.648 546.996 928.375 546.996 919.603C546.996 916.747 547.557 914.146 548.679 911.8C549.903 909.352 551.535 907.312 553.575 905.68C555.717 903.946 558.216 902.62 561.072 901.702C564.03 900.682 567.294 900.172 570.864 900.172C574.128 900.172 577.494 900.427 580.962 900.937C584.43 901.447 587.592 902.416 590.448 903.844L588.459 910.117ZM648.517 907.21H624.343V954.334C624.343 959.128 625.414 962.392 627.556 964.126C629.698 965.758 632.656 966.574 636.43 966.574C639.388 966.574 642.142 966.319 644.692 965.809C647.242 965.197 649.384 964.585 651.118 963.973L652.342 969.94C650.302 970.756 647.803 971.47 644.845 972.082C641.887 972.694 638.623 973 635.053 973C628.933 973 624.292 971.572 621.13 968.716C617.968 965.758 616.387 961.321 616.387 955.405V907.21H603.382V901.09H616.387V878.14H624.343V901.09H648.517V907.21Z" fill="#777777"/>
<path d="M0 370C0 70 173 0 370 0C567 0 740 70 740 370C740 670 567 740 370 740C173 740 0 670 0 370Z" fill="#FAFA00"/>
<path d="M446.379 493.768V303.387C446.379 288.803 443.417 276.157 437.492 265.447C431.796 254.51 423.137 246.079 411.516 240.154C399.895 234.23 385.539 231.268 368.449 231.268C352.499 231.268 338.485 234.002 326.408 239.471C314.559 244.939 305.217 252.117 298.381 261.004C291.773 269.891 288.469 279.461 288.469 289.715H225.236C225.236 276.499 228.654 263.396 235.49 250.408C242.326 237.42 252.124 225.685 264.885 215.203C277.873 204.493 293.368 196.062 311.369 189.91C329.598 183.53 349.878 180.34 372.209 180.34C399.097 180.34 422.795 184.897 443.303 194.012C464.038 203.126 480.217 216.912 491.838 235.369C503.687 253.598 509.611 276.499 509.611 304.07V476.336C509.611 488.641 510.637 501.743 512.688 515.643C514.966 529.542 518.27 541.505 522.6 551.531L525 557H456.633C453.443 549.708 450.936 540.024 449.113 527.947C447.29 515.643 446.379 504.249 446.379 493.768ZM457.316 332.781L458 377.215H394.084C376.083 377.215 360.018 378.696 345.891 381.658C331.763 384.393 319.914 388.608 310.344 394.305C300.773 400.001 293.482 407.179 288.469 415.838C283.456 424.269 280.949 434.181 280.949 445.574C280.949 457.195 283.57 467.791 288.811 477.361C294.051 486.932 301.913 494.565 312.395 500.262C323.104 505.73 336.206 508.465 351.701 508.465C371.07 508.465 388.16 504.363 402.971 496.16C417.782 487.957 429.517 477.931 438.176 466.082C447.062 454.233 451.848 442.726 452.531 431.561L479.533 461.98C477.938 471.551 473.609 482.146 466.545 493.768C459.481 505.389 450.025 516.554 438.176 527.264C426.555 537.745 412.655 546.518 396.477 553.582C380.526 560.418 362.525 563.836 342.473 563.836C317.408 563.836 295.419 558.937 276.506 549.139C257.821 539.34 243.238 526.238 232.756 509.832C222.502 493.198 217.375 474.627 217.375 454.119C217.375 434.295 221.249 416.863 228.996 401.824C236.743 386.557 247.909 373.911 262.492 363.885C277.076 353.631 294.621 345.883 315.129 340.643C335.637 335.402 358.537 332.781 383.83 332.781H457.316Z" fill="white"/>
</svg>
