<svg height="140" viewBox="0 0 740 1009" fill="none" xmlns="http://www.w3.org/2000/svg">
<path d="M97.0833 973V864.37H105.039V973H97.0833ZM129.506 973V901.09H137.462V973H129.506ZM133.637 882.577C132.005 882.577 130.577 882.067 129.353 881.047C128.231 879.925 127.67 878.395 127.67 876.457C127.67 874.417 128.231 872.836 129.353 871.714C130.475 870.592 131.852 870.031 133.484 870.031C135.014 870.031 136.34 870.592 137.462 871.714C138.686 872.734 139.298 874.315 139.298 876.457C139.298 878.497 138.737 880.027 137.615 881.047C136.493 882.067 135.167 882.577 133.637 882.577ZM169.273 973H161.317V901.09H167.131L168.355 911.035C171.823 907.771 175.546 905.17 179.524 903.232C183.604 901.192 188.194 900.172 193.294 900.172C200.638 900.172 206.35 902.212 210.43 906.292C214.612 910.372 216.703 916.084 216.703 923.428V973H208.747V925.417C208.747 922.765 208.441 920.317 207.829 918.073C207.319 915.727 206.35 913.738 204.922 912.106C203.596 910.372 201.76 909.046 199.414 908.128C197.17 907.108 194.365 906.598 190.999 906.598C187.123 906.598 183.247 907.618 179.371 909.658C175.597 911.596 172.231 914.248 169.273 917.614V973ZM248.477 946.684V973H240.521V864.37H248.477V937.504L284.585 901.09H294.53L264.236 931.384L295.907 973H286.421L259.034 936.127L248.477 946.684ZM359.667 937.045H308.412V939.187C308.412 948.163 310.809 955.201 315.603 960.301C320.499 965.299 327.129 967.798 335.493 967.798C342.123 967.798 348.345 966.676 354.159 964.432L355.995 970.552C353.343 971.674 350.13 972.541 346.356 973.153C342.684 973.867 338.91 974.224 335.034 974.224C330.24 974.224 325.701 973.51 321.417 972.082C317.235 970.654 313.563 968.461 310.401 965.503C307.239 962.443 304.74 958.618 302.904 954.028C301.068 949.336 300.15 943.726 300.15 937.198C300.15 931.588 300.915 926.488 302.445 921.898C303.975 917.308 306.168 913.432 309.024 910.27C311.88 907.006 315.246 904.507 319.122 902.773C322.998 901.039 327.333 900.172 332.127 900.172C336.207 900.172 339.93 900.937 343.296 902.467C346.764 903.895 349.671 905.986 352.017 908.74C354.465 911.494 356.352 914.809 357.678 918.685C359.004 922.561 359.667 926.845 359.667 931.537V937.045ZM351.405 930.619C351.405 927.661 351.048 924.754 350.334 921.898C349.62 918.94 348.447 916.339 346.815 914.095C345.285 911.851 343.245 910.066 340.695 908.74C338.247 907.312 335.238 906.598 331.668 906.598C325.446 906.598 320.244 908.689 316.062 912.871C311.982 917.053 309.534 922.969 308.718 930.619H351.405ZM424.64 864.37H432.596V973H426.17L425.099 966.268H424.793C422.651 968.614 419.948 970.552 416.684 972.082C413.42 973.51 409.187 974.224 403.985 974.224C400.109 974.224 396.284 973.51 392.51 972.082C388.838 970.552 385.472 968.257 382.412 965.197C379.454 962.137 377.057 958.312 375.221 953.722C373.385 949.03 372.467 943.522 372.467 937.198C372.467 931.588 373.181 926.488 374.609 921.898C376.139 917.308 378.332 913.432 381.188 910.27C384.044 907.006 387.461 904.507 391.439 902.773C395.519 901.039 400.109 900.172 405.209 900.172C412.961 900.172 419.438 902.467 424.64 907.057V864.37ZM424.64 915.166C422.6 912.514 419.897 910.423 416.531 908.893C413.165 907.363 409.85 906.598 406.586 906.598C403.22 906.598 399.956 907.159 396.794 908.281C393.734 909.301 390.98 910.984 388.532 913.33C386.186 915.676 384.299 918.787 382.871 922.663C381.443 926.539 380.729 931.231 380.729 936.739C380.729 942.451 381.443 947.296 382.871 951.274C384.299 955.15 386.186 958.312 388.532 960.76C390.98 963.208 393.734 964.993 396.794 966.115C399.854 967.237 403.016 967.798 406.28 967.798C410.666 967.798 414.389 966.982 417.449 965.35C420.611 963.718 423.008 961.678 424.64 959.23V915.166ZM487.353 973V864.37H495.309V973H487.353ZM519.776 973V901.09H527.732V973H519.776ZM523.907 882.577C522.275 882.577 520.847 882.067 519.623 881.047C518.501 879.925 517.94 878.395 517.94 876.457C517.94 874.417 518.501 872.836 519.623 871.714C520.745 870.592 522.122 870.031 523.754 870.031C525.284 870.031 526.61 870.592 527.732 871.714C528.956 872.734 529.568 874.315 529.568 876.457C529.568 878.497 529.007 880.027 527.885 881.047C526.763 882.067 525.437 882.577 523.907 882.577ZM588.459 910.117C583.359 907.771 577.8 906.598 571.782 906.598C566.274 906.598 562.143 907.771 559.389 910.117C556.635 912.361 555.258 915.268 555.258 918.838C555.258 922.408 556.431 925.162 558.777 927.1C561.123 928.936 565.254 930.721 571.17 932.455L575.76 933.832C581.574 935.566 586.011 938.116 589.071 941.482C592.131 944.848 593.661 948.979 593.661 953.875C593.661 956.731 593.1 959.434 591.978 961.984C590.856 964.432 589.225 966.574 587.083 968.41C584.94 970.246 582.237 971.674 578.973 972.694C575.811 973.714 572.139 974.224 567.957 974.224C563.367 974.224 559.338 973.816 555.87 973C552.402 972.286 549.342 971.317 546.69 970.093L548.832 963.82C551.484 965.146 554.238 966.166 557.094 966.88C559.95 967.492 563.316 967.798 567.192 967.798C573.006 967.798 577.494 966.676 580.656 964.432C583.818 962.188 585.399 958.975 585.399 954.793C585.399 951.529 584.226 948.724 581.88 946.378C579.636 943.93 575.607 941.788 569.793 939.952L564.897 938.422C552.963 934.648 546.996 928.375 546.996 919.603C546.996 916.747 547.557 914.146 548.679 911.8C549.903 909.352 551.535 907.312 553.575 905.68C555.717 903.946 558.216 902.62 561.072 901.702C564.03 900.682 567.294 900.172 570.864 900.172C574.128 900.172 577.494 900.427 580.962 900.937C584.43 901.447 587.592 902.416 590.448 903.844L588.459 910.117ZM648.517 907.21H624.343V954.334C624.343 959.128 625.414 962.392 627.556 964.126C629.698 965.758 632.656 966.574 636.43 966.574C639.388 966.574 642.142 966.319 644.692 965.809C647.242 965.197 649.384 964.585 651.118 963.973L652.342 969.94C650.302 970.756 647.803 971.47 644.845 972.082C641.887 972.694 638.623 973 635.053 973C628.933 973 624.292 971.572 621.13 968.716C617.968 965.758 616.387 961.321 616.387 955.405V907.21H603.382V901.09H616.387V878.14H624.343V901.09H648.517V907.21Z" fill="#777777"/>
<path d="M0 370C0 70 173 0 370 0C567 0 740 70 740 370C740 670 567 740 370 740C173 740 0 670 0 370Z" fill="#FAFA00"/>
<path d="M413.6 545.2C412.2 538.2 411.267 532.367 410.8 527.7C410.8 522.567 410.567 516.733 410.1 510.2C394.233 526.067 377.2 537.733 359 545.2C341.267 552.667 322.833 556.4 303.7 556.4C271.967 556.4 247.467 547.767 230.2 530.5C213.4 513.233 205 492 205 466.8C205 444.4 211.067 425.5 223.2 410.1C235.333 394.233 251.2 381.4 270.8 371.6C290.4 361.333 312.1 353.633 335.9 348.5C359.7 342.9 383.267 339.867 406.6 339.4V300.9C406.6 287.367 404.967 275 401.7 263.8C398.9 252.133 393.533 243.033 385.6 236.5C377.667 229.5 366 226 350.6 226C340.333 226.467 329.833 228.8 319.1 233C308.833 236.733 300.667 242.8 294.6 251.2C298.333 255.4 300.667 260.067 301.6 265.2C302.533 269.867 303 274.067 303 277.8C303 286.2 299.733 295.067 293.2 304.4C286.667 313.267 276.167 317.467 261.7 317C249.1 316.533 239.3 312.1 232.3 303.7C225.767 295.3 222.5 285.267 222.5 273.6C222.5 255.867 228.8 240.467 241.4 227.4C254.467 213.867 271.967 203.367 293.9 195.9C315.833 187.967 340.333 184 367.4 184C407.533 184 438.333 194.5 459.8 215.5C481.267 236.5 491.767 270.1 491.3 316.3C491.3 332.633 491.3 347.567 491.3 361.1C491.3 374.167 491.067 387.467 490.6 401C490.6 414.067 490.6 428.767 490.6 445.1C490.6 452.1 490.367 460.967 489.9 471.7C489.433 481.967 488.733 492.233 487.8 502.5C496.2 501.567 504.6 501.1 513 501.1C521.867 500.633 529.1 500.167 534.7 499.7V545.2H413.6ZM405.9 380.7C391.9 381.633 378.133 383.967 364.6 387.7C351.067 390.967 338.933 395.633 328.2 401.7C317.467 407.767 308.833 415.467 302.3 424.8C296.233 433.667 293.433 443.933 293.9 455.6C294.367 470.067 299.033 480.8 307.9 487.8C316.767 494.333 327.033 497.6 338.7 497.6C352.233 497.6 364.367 494.8 375.1 489.2C386.3 483.6 396.567 476.133 405.9 466.8C405.9 462.133 405.9 457.233 405.9 452.1C405.9 446.967 405.9 441.833 405.9 436.7C405.9 430.167 405.9 422 405.9 412.2C405.9 402.4 405.9 391.9 405.9 380.7Z" fill="white"/>
</svg>
